Coordinates
version=1
nRows=14
nColumns=40
inDegrees=yes

Units are S.I. units (second, meters, Newtons, ...)
Angles are in degrees.

endheader
time	pelvis_tilt	pelvis_list	pelvis_rotation	pelvis_tx	pelvis_ty	pelvis_tz	hip_flexion_r	hip_adduction_r	hip_rotation_r	knee_angle_r	knee_angle_r_beta	ankle_angle_r	subtalar_angle_r	mtp_angle_r	hip_flexion_l	hip_adduction_l	hip_rotation_l	knee_angle_l	knee_angle_l_beta	ankle_angle_l	subtalar_angle_l	mtp_angle_l	lumbar_extension	lumbar_bending	lumbar_rotation	arm_flex_r	arm_add_r	arm_rot_r	elbow_flex_r	pro_sup_r	wrist_flex_r	wrist_dev_r	arm_flex_l	arm_add_l	arm_rot_l	elbow_flex_l	pro_sup_l	wrist_flex_l	wrist_dev_l
     45.35764286	     -7.89157698	     -4.44574015	    -11.77654882	      0.85338523	      0.92332150	      0.45254116	     25.19804011	     -0.77879298	     -2.12797545	     23.28925995	     23.28925995	     11.16642819	      4.01832128	      2.15972312	     14.43589009	     -4.57544162	     -7.68781076	     24.46175103	     24.46175103	     19.85436662	    -17.77035768	      9.35765519	    -11.12460539	      9.29721479	      2.39565986	     -7.87871658	    -10.21892848	    -17.46479871	     30.55931407	     47.23331796	      0.00000000	      0.00000000	     30.28878516	    -25.59298845	     -5.72340320	     77.52130106	     47.65889277	      0.00000000	      0.00000000
     45.38028571	     -8.13414355	     -4.41793783	    -12.40148140	      0.85214648	      0.92322694	      0.45733852	     25.25555375	     -0.29189606	     -2.20233562	     20.77831116	     20.77831116	     10.29381149	      6.47436593	      3.18664517	     14.09283011	     -4.93626843	     -8.22816369	     24.07820778	     24.07820778	     19.90476182	    -17.71326268	      9.18233119	    -11.14149409	      9.18089862	      2.32261817	     -7.02578037	     -9.90360400	    -17.45835027	     31.34800913	     47.19532457	      0.00000000	      0.00000000	     31.01999377	    -25.52689681	     -5.99200780	     78.12230979	     47.69701586	      0.00000000	      0.00000000
     45.40292857	     -8.25709575	     -4.30599958	    -12.88438384	      0.85133522	      0.92287685	      0.46201561	     25.39468695	     -0.07842616	     -2.67211050	     19.28891411	     19.28891411	      9.66171836	      9.24881180	      4.15908874	     13.64568572	     -5.15248281	     -8.71687927	     23.71799618	     23.71799618	     19.89828110	    -17.67892109	      8.74124290	    -11.28677572	      9.01512984	      2.24473268	     -6.20846021	     -9.70954606	    -17.49183275	     32.67375067	     47.12875542	      0.00000000	      0.00000000	     31.45262552	    -25.13541281	     -6.58901556	     78.95683782	     47.76258108	      0.00000000	      0.00000000
     45.42557143	     -8.51610923	     -4.07714848	    -13.17003949	      0.85081627	      0.92202898	      0.46671875	     25.76849425	      0.07619193	     -2.75334452	     18.51572901	     18.51572901	      9.09004963	     10.78016083	      4.86007624	     13.44627977	     -5.26462100	     -9.06431043	     23.47538100	     23.47538100	     19.73120196	    -17.67383529	      7.82605293	    -11.17633756	      8.78903083	      1.97577343	     -5.76932730	     -9.53102544	    -17.30672288	     34.80344725	     46.97836765	      0.00000000	      0.00000000	     31.51999626	    -24.43982986	     -7.71265502	     79.88373757	     47.87480132	      0.00000000	      0.00000000
     45.44821429	     -8.71938958	     -3.94375923	    -13.31742821	      0.85064669	      0.92112530	      0.47157048	     26.06953934	      0.36157117	     -2.46314404	     18.32445575	     18.32445575	      8.61989268	     11.18033312	      4.96283820	     13.24351295	     -5.43789403	     -9.14587282	     23.40106631	     23.40106631	     19.95967736	    -17.71672535	      7.74039910	    -11.14660171	      8.64505705	      1.89740111	     -4.69465418	     -9.56092832	    -17.24407002	     35.24362723	     46.96223175	      0.00000000	      0.00000000	     31.70490845	    -23.87488322	     -7.50914687	     80.00770134	     47.86555629	      0.00000000	      0.00000000
     45.47085714	     -8.83828107	     -3.81684305	    -13.28650706	      0.85100619	      0.92049954	      0.47637460	     25.97068996	      0.54053427	     -2.45627734	     18.00461602	     18.00461602	      7.72028454	     11.70487330	      3.53446230	     12.86279147	     -5.58365147	     -9.21461720	     23.17121319	     23.17121319	     20.03015974	    -17.52555068	      7.33887801	    -11.21735094	      8.55148060	      1.91624276	     -4.08543148	     -9.74981663	    -16.93215884	     36.18680838	     46.87885697	      0.00000000	      0.00000000	     31.77345369	    -22.59912665	     -7.99565381	     80.25306507	     47.91180541	      0.00000000	      0.00000000
     45.49350000	     -9.05495201	     -3.69638095	    -13.12567884	      0.85155265	      0.91975570	      0.48139875	     26.06510096	      0.74306944	     -2.39270356	     18.25331854	     18.25331854	      7.55398120	     11.56523579	      3.33680220	     12.64198728	     -5.75215896	     -9.09886792	     23.03375256	     23.03375256	     20.16567329	    -17.42357944	      7.27642661	    -11.08691559	      8.41320505	      1.76187824	     -3.15743615	    -10.00802638	    -16.91238427	     36.57475058	     46.86675790	      0.00000000	      0.00000000	     31.48544379	    -21.81820431	     -7.68732635	     80.19377015	     47.88912718	      0.00000000	      0.00000000
     45.51614286	     -9.26251506	     -3.58603837	    -12.84698163	      0.85235659	      0.91916930	      0.48646771	     26.06851538	      0.91224073	     -2.40127730	     18.61716987	     18.61716987	      7.51977711	     11.26631534	      3.07766229	     12.37040988	     -5.91651888	     -8.90560481	     22.81881320	     22.81881320	     20.30687043	    -17.23970536	      7.21403892	    -10.97614873	      8.32118147	      1.59927031	     -2.30810315	    -10.39365759	    -16.92332974	     36.91450258	     46.85891536	      0.00000000	      0.00000000	     31.00397824	    -20.92983592	     -7.34885759	     80.06429174	     47.86165726	      0.00000000	      0.00000000
     45.53878571	     -9.42838494	     -3.39619302	    -12.53111913	      0.85342243	      0.91865408	      0.49187847	     25.95225603	      1.18193576	     -1.67341300	     18.84738820	     18.84738820	      6.05824684	      9.30955965	     -2.02918925	     11.86819236	     -6.02144987	     -8.91903558	     22.21179075	     22.21179075	     19.86662703	    -16.91230399	      6.02743360	    -10.87883700	      8.10312086	      1.62002394	     -1.85059370	    -10.95670037	    -16.47095776	     37.31762879	     46.75355497	      0.00000000	      0.00000000	     30.65679212	    -19.53532064	     -7.66301083	     78.88371197	     47.87315754	      0.00000000	      0.00000000
     45.56142857	     -9.66211407	     -3.32864288	    -12.08005341	      0.85445781	      0.91845580	      0.49717371	     25.83031364	      1.34436814	     -1.95021829	     19.18123018	     19.18123018	      6.29894152	      8.92021839	     -2.19925756	     11.58323768	     -6.25349883	     -8.65940190	     21.89470706	     21.89470706	     19.82865240	    -16.59234197	      6.05454309	    -10.79525641	      8.00860657	      1.45873868	     -1.10679987	    -11.57357436	    -16.55687988	     37.58515248	     46.75287880	      0.00000000	      0.00000000	     29.76029215	    -18.62897439	     -7.20887070	     78.61027744	     47.83248812	      0.00000000	      0.00000000
     45.58407143	     -9.90262310	     -3.26320660	    -11.59065644	      0.85553588	      0.91842788	      0.50261975	     25.71093600	      1.51584878	     -2.23484058	     19.52917402	     19.52917402	      6.60105965	      8.39583955	     -2.36895703	     11.25009013	     -6.50183423	     -8.44467406	     21.44974238	     21.44974238	     19.70587627	    -16.15994417	      6.10516625	    -10.69809292	      7.88552873	      1.31469051	     -0.47873658	    -12.24451839	    -16.66556965	     37.78985892	     46.75547030	      0.00000000	      0.00000000	     28.66874865	    -17.79286214	     -6.76421767	     78.16504290	     47.78812968	      0.00000000	      0.00000000
     45.60671429	    -10.08408171	     -3.10264320	    -11.19913218	      0.85675840	      0.91875777	      0.50834701	     25.61123364	      1.73431654	     -1.88347221	     19.95858555	     19.95858555	      6.90095682	      7.05598845	     -2.45891954	     10.48841574	     -6.65654261	     -8.61832542	     20.33046388	     20.33046388	     19.43385723	    -15.19646327	      5.89639191	    -10.59437176	      7.61204902	      0.87698168	      0.30009493	    -12.87423928	    -16.84015834	     37.74583807	     46.76453302	      0.00000000	      0.00000000	     27.35433757	    -17.41896679	     -6.12461748	     76.54778223	     47.71049773	      0.00000000	      0.00000000
     45.62935714	    -10.33619537	     -3.10367212	    -10.63264810	      0.85771475	      0.91897797	      0.51377767	     25.41385978	      1.95605227	     -2.22727338	     20.06807635	     20.06807635	      7.20110425	      6.53485072	     -2.50829367	     10.21037515	     -7.00778114	     -8.42212247	     19.92414091	     19.92414091	     19.21273374	    -14.64147427	      5.83557173	    -10.52018285	      7.51209512	      0.70968776	      0.93732588	    -13.72453334	    -17.01051612	     37.83005903	     46.77452906	      0.00000000	      0.00000000	     25.98106192	    -16.54952385	     -5.54627530	     75.69472142	     47.64830490	      0.00000000	      0.00000000
     45.65200000	    -10.53908379	     -3.16546144	    -10.11189324	      0.85866597	      0.91947299	      0.51949126	     25.06275208	      2.35591833	     -2.17707215	     19.96325188	     19.96325188	      7.59409187	      5.47813387	     -1.88444689	      9.73008066	     -7.55118574	     -8.89819891	     19.24655083	     19.24655083	     18.52738281	    -13.23317053	      4.22099724	    -10.32955429	      7.41437561	      0.81995662	      1.97928077	    -14.49853058	    -17.69396025	     36.26537060	     46.84341575	      0.00000000	      0.00000000	     25.54534767	    -16.02719326	     -3.63921481	     71.68903273	     47.45791313	      0.00000000	      0.00000000
